<svg xmlns="http://www.w3.org/2000/svg" xmlns:xlink="http://www.w3.org/1999/xlink" width="64" height="64" viewBox="0 0 512 512" style="enable-background:new 0 0 512 512;" xml:space="preserve"><path fill="currentColor" d="M192.7,473.7c-28,0-48.1-9.5-60.3-28.4c-12.2-19-18.6-33.7-22.3-69.2l-43-0.1c2.9,42.5,14.6,75.8,35.2,99.9 c20.6,24.1,50.5,36.2,89.7,36.2c23.8,0,44.5-4.7,61.8-14.1v-53.7C243,463.8,222.6,473.7,192.7,473.7z M234.1,259.7l-88.4-83.5 c-12.8-12.4-21.9-24.1-27.2-35.2c-5.4-11.1-8-23.7-8-37.7c0-21.8,6.4-38.3,19.2-49.5c12.8-11.1,29.9-16.7,51.3-16.7 c27.2,0,46.7,8.3,58.4,24.7c6.1,8.6,10.9,19.5,14.5,32.7V19.4C235.2,6.5,210.9,0,180.9,0c-34.6,0-62.1,9.4-82.6,28.1 C78,46.9,67.8,73.4,67.8,107.6c0,19.8,3.6,37.8,10.8,54.1c7.2,16.3,18.9,31.8,34.9,46.7l88.4,84.7c21.4,20.2,37,38.1,46.7,53.8 c2,3.2,3.7,6.4,5.3,9.8v-76.8C247.8,273.1,241.2,266.4,234.1,259.7z M444.9,0l-11.1,36H309.2v192.8h65.1l-10.9,35.4h-54.2V512h-48V0 H444.9z"/></svg>
