<?xml version="1.0" standalone="no"?>
<!DOCTYPE svg PUBLIC "-//W3C//DTD SVG 20010904//EN"
 "http://www.w3.org/TR/2001/REC-SVG-20010904/DTD/svg10.dtd">
<svg version="1.0" xmlns="http://www.w3.org/2000/svg"
 width="2200.000000pt" height="2200.000000pt" viewBox="0 0 2200.000000 2200.000000"
 preserveAspectRatio="xMidYMid meet">
<metadata>
Created by potrace 1.11, written by Peter Selinger 2001-2013
</metadata>
<g transform="translate(0.000000,2200.000000) scale(0.100000,-0.100000)"
fill="#000000" stroke="none">
<path d="M7360 21659 c-1172 -86 -2094 -435 -2839 -1073 -387 -331 -697 -736
-922 -1201 -232 -482 -365 -994 -425 -1635 -22 -232 -25 -843 -6 -1060 65
-729 222 -1324 501 -1905 241 -500 608 -1015 1046 -1464 77 -79 1040 -1006
2140 -2059 1977 -1893 2528 -2430 2820 -2752 559 -614 957 -1156 1186 -1611
27 -55 51 -99 54 -99 3 0 5 722 5 1605 l0 1604 -127 138 c-283 306 -702 709
-2578 2480 -1078 1018 -2005 1899 -2061 1959 -164 177 -270 299 -373 429 -490
613 -729 1166 -818 1885 -22 180 -25 713 -5 885 76 657 290 1151 662 1525 553
557 1372 835 2375 806 791 -22 1381 -200 1855 -559 113 -86 283 -252 370 -362
161 -204 338 -513 465 -815 55 -132 180 -493 206 -597 7 -29 16 -53 21 -53 4
0 8 706 8 1569 l0 1569 -118 75 c-659 418 -1452 652 -2427 717 -177 12 -851
11 -1015 -1z"/>
<path d="M11210 11005 l0 -10665 1005 0 1005 0 0 5160 0 5160 1129 0 1129 0
11 33 c34 107 432 1402 437 1423 l6 24 -1356 0 -1356 0 0 4010 0 4010 2594 0
2594 0 11 33 c49 154 451 1465 451 1470 0 4 -1723 7 -3830 7 l-3830 0 0
-10665z"/>
<path d="M3130 5958 c0 -143 62 -676 115 -995 212 -1260 655 -2297 1323 -3093
767 -915 1835 -1415 3249 -1521 222 -16 1024 -7 1213 15 726 83 1277 241 1828
524 l62 32 0 1127 c0 711 -4 1123 -9 1118 -6 -6 -33 -48 -61 -95 -118 -194
-314 -417 -487 -553 -507 -401 -1216 -594 -2103 -574 -358 8 -605 40 -895 114
-633 161 -1127 501 -1474 1013 -105 154 -272 434 -359 600 -300 573 -473 1198
-577 2085 -15 127 -29 236 -31 243 -3 9 -191 12 -899 12 l-895 0 0 -52z"/>
</g>
</svg>
